<svg xmlns="http://www.w3.org/2000/svg" width="400" height="400">
    <g>
        <circle cx="319.5" cy="270.5" r="5" stroke="none" fill="SaddleBrown" stroke-width="2"></circle>
        <circle cx="311.5" cy="277" r="5" stroke="none" fill="SaddleBrown" stroke-width="2"></circle>
        <circle cx="304.5" cy="283.5" r="5" stroke="none" fill="SaddleBrown" stroke-width="2"></circle>
        <circle cx="297" cy="290" r="5" stroke="none" fill="SaddleBrown" stroke-width="2"></circle>
        <circle cx="289" cy="294.5" r="5" stroke="none" fill="SaddleBrown" stroke-width="2"></circle>
        <circle cx="280.5" cy="300" r="5" stroke="none" fill="SaddleBrown" stroke-width="2"></circle>
        <circle cx="272" cy="304.5" r="5" stroke="none" fill="SaddleBrown" stroke-width="2"></circle>
        <circle cx="263.5" cy="308.5" r="5" stroke="none" fill="SaddleBrown" stroke-width="2"></circle>
        <circle cx="254" cy="311.5" r="5" stroke="none" fill="SaddleBrown" stroke-width="2"></circle>
        <circle cx="246" cy="314" r="5" stroke="none" fill="SaddleBrown" stroke-width="2"></circle>
        <circle cx="236" cy="317" r="5" stroke="none" fill="SaddleBrown" stroke-width="2"></circle>
        <circle cx="227.5" cy="318.5" r="5" stroke="none" fill="SaddleBrown" stroke-width="2"></circle>
        <circle cx="218.5" cy="319.5" r="5" stroke="none" fill="SaddleBrown" stroke-width="2"></circle>
        <circle cx="209" cy="320" r="5" stroke="none" fill="SaddleBrown" stroke-width="2"></circle>
        <circle cx="200" cy="321" r="5" stroke="none" fill="SaddleBrown" stroke-width="2"></circle>
        <circle cx="191" cy="320" r="5" stroke="none" fill="SaddleBrown" stroke-width="2"></circle>
        <circle cx="182" cy="318" r="5" stroke="none" fill="SaddleBrown" stroke-width="2"></circle>
        <circle cx="173" cy="317.5" r="5" stroke="none" fill="SaddleBrown" stroke-width="2"></circle>
        <circle cx="165.5" cy="315" r="5" stroke="none" fill="SaddleBrown" stroke-width="2"></circle>
        <circle cx="157" cy="313" r="5" stroke="none" fill="SaddleBrown" stroke-width="2"></circle>
        <circle cx="148.5" cy="309" r="5" stroke="none" fill="SaddleBrown" stroke-width="2"></circle>
        <circle cx="141.5" cy="306" r="5" stroke="none" fill="SaddleBrown" stroke-width="2"></circle>
        <circle cx="134" cy="302.5" r="5" stroke="none" fill="SaddleBrown" stroke-width="2"></circle>
        <circle cx="127" cy="298" r="5" stroke="none" fill="SaddleBrown" stroke-width="2"></circle>
        <circle cx="120.5" cy="293.5" r="5" stroke="none" fill="SaddleBrown" stroke-width="2"></circle>
        <circle cx="114.5" cy="288.5" r="5" stroke="none" fill="SaddleBrown" stroke-width="2"></circle>
        <circle cx="109" cy="283.5" r="5" stroke="none" fill="SaddleBrown" stroke-width="2"></circle>
        <circle cx="103" cy="277.5" r="5" stroke="none" fill="SaddleBrown" stroke-width="2"></circle>
        <circle cx="97" cy="271.5" r="5" stroke="none" fill="SaddleBrown" stroke-width="2"></circle>
        <circle cx="93.5" cy="266.5" r="5" stroke="none" fill="SaddleBrown" stroke-width="2"></circle>
        <circle cx="89" cy="259.5" r="5" stroke="none" fill="SaddleBrown" stroke-width="2"></circle>
        <circle cx="85.5" cy="253.5" r="5" stroke="none" fill="SaddleBrown" stroke-width="2"></circle>
        <circle cx="81.5" cy="246.5" r="5" stroke="none" fill="SaddleBrown" stroke-width="2"></circle>
        <circle cx="79.5" cy="240.5" r="5" stroke="none" fill="SaddleBrown" stroke-width="2"></circle>
        <circle cx="77.5" cy="233" r="5" stroke="none" fill="SaddleBrown" stroke-width="2"></circle>
        <circle cx="75.5" cy="226.5" r="5" stroke="none" fill="SaddleBrown" stroke-width="2"></circle>
        <circle cx="74.5" cy="220" r="5" stroke="none" fill="SaddleBrown" stroke-width="2"></circle>
        <circle cx="73.5" cy="212.5" r="5" stroke="none" fill="SaddleBrown" stroke-width="2"></circle>
        <circle cx="73" cy="206.5" r="5" stroke="none" fill="SaddleBrown" stroke-width="2"></circle>
        <circle cx="73.5" cy="200.5" r="5" stroke="none" fill="SaddleBrown" stroke-width="2"></circle>
        <circle cx="73.5" cy="192.5" r="5" stroke="none" fill="SaddleBrown" stroke-width="2"></circle>
        <circle cx="75.5" cy="186.5" r="5" stroke="none" fill="SaddleBrown" stroke-width="2"></circle>
        <circle cx="77" cy="180.5" r="5" stroke="none" fill="SaddleBrown" stroke-width="2"></circle>
        <circle cx="78" cy="174.5" r="5" stroke="none" fill="SaddleBrown" stroke-width="2"></circle>
        <circle cx="80.5" cy="168.5" r="5" stroke="none" fill="SaddleBrown" stroke-width="2"></circle>
        <circle cx="83" cy="162.5" r="5" stroke="none" fill="SaddleBrown" stroke-width="2"></circle>
        <circle cx="86.5" cy="157" r="5" stroke="none" fill="SaddleBrown" stroke-width="2"></circle>
        <circle cx="89" cy="151.5" r="5" stroke="none" fill="SaddleBrown" stroke-width="2"></circle>
        <circle cx="93" cy="147" r="5" stroke="none" fill="SaddleBrown" stroke-width="2"></circle>
        <circle cx="96.5" cy="142" r="5" stroke="none" fill="SaddleBrown" stroke-width="2"></circle>
        <circle cx="102" cy="137.5" r="5" stroke="none" fill="SaddleBrown" stroke-width="2"></circle>
        <circle cx="106" cy="133.5" r="5" stroke="none" fill="SaddleBrown" stroke-width="2"></circle>
        <circle cx="111" cy="128.5" r="5" stroke="none" fill="SaddleBrown" stroke-width="2"></circle>
        <circle cx="115.5" cy="125.5" r="5" stroke="none" fill="SaddleBrown" stroke-width="2"></circle>
        <circle cx="119.5" cy="123" r="5" stroke="none" fill="SaddleBrown" stroke-width="2"></circle>
        <circle cx="125.5" cy="120" r="5" stroke="none" fill="SaddleBrown" stroke-width="2"></circle>
        <circle cx="130.5" cy="118" r="5" stroke="none" fill="SaddleBrown" stroke-width="2"></circle>
        <circle cx="134.5" cy="116" r="5" stroke="none" fill="SaddleBrown" stroke-width="2"></circle>
        <circle cx="140" cy="114.5" r="5" stroke="none" fill="SaddleBrown" stroke-width="2"></circle>
        <circle cx="145.5" cy="114" r="5" stroke="none" fill="SaddleBrown" stroke-width="2"></circle>
        <circle cx="151" cy="112.5" r="5" stroke="none" fill="SaddleBrown" stroke-width="2"></circle>
        <circle cx="157" cy="112.5" r="5" stroke="none" fill="SaddleBrown" stroke-width="2"></circle>
        <circle cx="161.5" cy="111.5" r="5" stroke="none" fill="SaddleBrown" stroke-width="2"></circle>
        <circle cx="167" cy="112" r="5" stroke="none" fill="SaddleBrown" stroke-width="2"></circle>
        <circle cx="171.5" cy="112.5" r="5" stroke="none" fill="SaddleBrown" stroke-width="2"></circle>
        <circle cx="177.5" cy="112.5" r="5" stroke="none" fill="SaddleBrown" stroke-width="2"></circle>
        <circle cx="182" cy="114" r="5" stroke="none" fill="SaddleBrown" stroke-width="2"></circle>
        <circle cx="186.5" cy="115" r="5" stroke="none" fill="SaddleBrown" stroke-width="2"></circle>
        <circle cx="191" cy="116.5" r="5" stroke="none" fill="SaddleBrown" stroke-width="2"></circle>
        <circle cx="196" cy="118.5" r="5" stroke="none" fill="SaddleBrown" stroke-width="2"></circle>
        <circle cx="200" cy="120.5" r="5" stroke="none" fill="SaddleBrown" stroke-width="2"></circle>
        <circle cx="204" cy="123" r="5" stroke="none" fill="SaddleBrown" stroke-width="2"></circle>
        <circle cx="207" cy="124.5" r="5" stroke="none" fill="SaddleBrown" stroke-width="2"></circle>
        <circle cx="210" cy="128.5" r="5" stroke="none" fill="SaddleBrown" stroke-width="2"></circle>
        <circle cx="214.5" cy="130.5" r="5" stroke="none" fill="SaddleBrown" stroke-width="2"></circle>
        <circle cx="217.5" cy="134.5" r="5" stroke="none" fill="SaddleBrown" stroke-width="2"></circle>
        <circle cx="220" cy="137.5" r="5" stroke="none" fill="SaddleBrown" stroke-width="2"></circle>
        <circle cx="222.5" cy="140" r="5" stroke="none" fill="SaddleBrown" stroke-width="2"></circle>
        <circle cx="225" cy="143" r="5" stroke="none" fill="SaddleBrown" stroke-width="2"></circle>
        <circle cx="226.5" cy="146.5" r="5" stroke="none" fill="SaddleBrown" stroke-width="2"></circle>
        <circle cx="227.5" cy="149.5" r="5" stroke="none" fill="SaddleBrown" stroke-width="2"></circle>
        <circle cx="229" cy="153.5" r="5" stroke="none" fill="SaddleBrown" stroke-width="2"></circle>
        <circle cx="230" cy="156.5" r="5" stroke="none" fill="SaddleBrown" stroke-width="2"></circle>
        <circle cx="231" cy="160" r="5" stroke="none" fill="SaddleBrown" stroke-width="2"></circle>
        <circle cx="231.5" cy="163.5" r="5" stroke="none" fill="SaddleBrown" stroke-width="2"></circle>
        <circle cx="232" cy="167.5" r="5" stroke="none" fill="SaddleBrown" stroke-width="2"></circle>
        <circle cx="232" cy="169.5" r="5" stroke="none" fill="SaddleBrown" stroke-width="2"></circle>
        <circle cx="232" cy="172" r="5" stroke="none" fill="SaddleBrown" stroke-width="2"></circle>
        <circle cx="231" cy="175.5" r="5" stroke="none" fill="SaddleBrown" stroke-width="2"></circle>
        <circle cx="230.5" cy="178.5" r="5" stroke="none" fill="SaddleBrown" stroke-width="2"></circle>
        <circle cx="229" cy="181" r="5" stroke="none" fill="SaddleBrown" stroke-width="2"></circle>
        <circle cx="228.5" cy="184" r="5" stroke="none" fill="SaddleBrown" stroke-width="2"></circle>
        <circle cx="227" cy="186" r="5" stroke="none" fill="SaddleBrown" stroke-width="2"></circle>
        <circle cx="226" cy="188" r="5" stroke="none" fill="SaddleBrown" stroke-width="2"></circle>
        <circle cx="225.5" cy="189.5" r="5" stroke="none" fill="SaddleBrown" stroke-width="2"></circle>
        <circle cx="224" cy="190.5" r="5" stroke="none" fill="SaddleBrown" stroke-width="2"></circle>
        <circle cx="223.5" cy="192" r="5" stroke="none" fill="SaddleBrown" stroke-width="2"></circle>
        <circle cx="222" cy="193.5" r="5" stroke="none" fill="SaddleBrown" stroke-width="2"></circle>
        <circle cx="221.5" cy="194.5" r="5" stroke="none" fill="SaddleBrown" stroke-width="2"></circle>
        <circle cx="220" cy="196" r="5" stroke="none" fill="SaddleBrown" stroke-width="2"></circle>
        <circle cx="219" cy="197" r="5" stroke="none" fill="SaddleBrown" stroke-width="2"></circle>
        <circle cx="218.5" cy="197.5" r="5" stroke="none" fill="SaddleBrown" stroke-width="2"></circle>
        <circle cx="217.5" cy="198.5" r="5" stroke="none" fill="SaddleBrown" stroke-width="2"></circle>
        <circle cx="216.5" cy="199.5" r="5" stroke="none" fill="SaddleBrown" stroke-width="2"></circle>
        <circle cx="215.5" cy="200" r="5" stroke="none" fill="SaddleBrown" stroke-width="2"></circle>
        <circle cx="215" cy="201" r="5" stroke="none" fill="SaddleBrown" stroke-width="2"></circle>
        <circle cx="193.5" cy="33.5" r="5" stroke="none" fill="orange" stroke-width="2"></circle>
        <circle cx="203.5" cy="35.5" r="5" stroke="none" fill="orange" stroke-width="2"></circle>
        <circle cx="213.5" cy="39" r="5" stroke="none" fill="orange" stroke-width="2"></circle>
        <circle cx="222.5" cy="41" r="5" stroke="none" fill="orange" stroke-width="2"></circle>
        <circle cx="232" cy="45.5" r="5" stroke="none" fill="orange" stroke-width="2"></circle>
        <circle cx="239.5" cy="49.5" r="5" stroke="none" fill="orange" stroke-width="2"></circle>
        <circle cx="249" cy="53.5" r="5" stroke="none" fill="orange" stroke-width="2"></circle>
        <circle cx="256" cy="59.5" r="5" stroke="none" fill="orange" stroke-width="2"></circle>
        <circle cx="263.5" cy="65" r="5" stroke="none" fill="orange" stroke-width="2"></circle>
        <circle cx="271.5" cy="71" r="5" stroke="none" fill="orange" stroke-width="2"></circle>
        <circle cx="277.5" cy="76.5" r="5" stroke="none" fill="orange" stroke-width="2"></circle>
        <circle cx="283" cy="84" r="5" stroke="none" fill="orange" stroke-width="2"></circle>
        <circle cx="289.5" cy="91.5" r="5" stroke="none" fill="orange" stroke-width="2"></circle>
        <circle cx="295" cy="98.5" r="5" stroke="none" fill="orange" stroke-width="2"></circle>
        <circle cx="299.5" cy="105.5" r="5" stroke="none" fill="orange" stroke-width="2"></circle>
        <circle cx="304" cy="113" r="5" stroke="none" fill="orange" stroke-width="2"></circle>
        <circle cx="306" cy="121" r="5" stroke="none" fill="orange" stroke-width="2"></circle>
        <circle cx="309" cy="129" r="5" stroke="none" fill="orange" stroke-width="2"></circle>
        <circle cx="312.5" cy="137" r="5" stroke="none" fill="orange" stroke-width="2"></circle>
        <circle cx="313.5" cy="144.5" r="5" stroke="none" fill="orange" stroke-width="2"></circle>
        <circle cx="315" cy="153" r="5" stroke="none" fill="orange" stroke-width="2"></circle>
        <circle cx="315.5" cy="161" r="5" stroke="none" fill="orange" stroke-width="2"></circle>
        <circle cx="316.5" cy="168.5" r="5" stroke="none" fill="orange" stroke-width="2"></circle>
        <circle cx="316" cy="176.5" r="5" stroke="none" fill="orange" stroke-width="2"></circle>
        <circle cx="314.5" cy="184.5" r="5" stroke="none" fill="orange" stroke-width="2"></circle>
        <circle cx="313" cy="192" r="5" stroke="none" fill="orange" stroke-width="2"></circle>
        <circle cx="311.5" cy="199.5" r="5" stroke="none" fill="orange" stroke-width="2"></circle>
        <circle cx="309" cy="206.5" r="5" stroke="none" fill="orange" stroke-width="2"></circle>
        <circle cx="306" cy="213.5" r="5" stroke="none" fill="orange" stroke-width="2"></circle>
        <circle cx="303" cy="220" r="5" stroke="none" fill="orange" stroke-width="2"></circle>
        <circle cx="299" cy="227" r="5" stroke="none" fill="orange" stroke-width="2"></circle>
        <circle cx="295" cy="232.5" r="5" stroke="none" fill="orange" stroke-width="2"></circle>
        <circle cx="290" cy="238.5" r="5" stroke="none" fill="orange" stroke-width="2"></circle>
        <circle cx="285" cy="244" r="5" stroke="none" fill="orange" stroke-width="2"></circle>
        <circle cx="280" cy="249" r="5" stroke="none" fill="orange" stroke-width="2"></circle>
        <circle cx="275.5" cy="253.5" r="5" stroke="none" fill="orange" stroke-width="2"></circle>
        <circle cx="269" cy="259" r="5" stroke="none" fill="orange" stroke-width="2"></circle>
        <circle cx="262.5" cy="262" r="5" stroke="none" fill="orange" stroke-width="2"></circle>
        <circle cx="257" cy="266" r="5" stroke="none" fill="orange" stroke-width="2"></circle>
        <circle cx="251.5" cy="269.5" r="5" stroke="none" fill="orange" stroke-width="2"></circle>
        <circle cx="245" cy="272.5" r="5" stroke="none" fill="orange" stroke-width="2"></circle>
        <circle cx="239" cy="273.5" r="5" stroke="none" fill="orange" stroke-width="2"></circle>
        <circle cx="231.5" cy="276" r="5" stroke="none" fill="orange" stroke-width="2"></circle>
        <circle cx="225" cy="277" r="5" stroke="none" fill="orange" stroke-width="2"></circle>
        <circle cx="219" cy="279" r="5" stroke="none" fill="orange" stroke-width="2"></circle>
        <circle cx="212.5" cy="279.5" r="5" stroke="none" fill="orange" stroke-width="2"></circle>
        <circle cx="205" cy="280" r="5" stroke="none" fill="orange" stroke-width="2"></circle>
        <circle cx="199" cy="280.5" r="5" stroke="none" fill="orange" stroke-width="2"></circle>
        <circle cx="192.5" cy="279.5" r="5" stroke="none" fill="orange" stroke-width="2"></circle>
        <circle cx="187.5" cy="279" r="5" stroke="none" fill="orange" stroke-width="2"></circle>
        <circle cx="180.5" cy="277.5" r="5" stroke="none" fill="orange" stroke-width="2"></circle>
        <circle cx="175" cy="276.5" r="5" stroke="none" fill="orange" stroke-width="2"></circle>
        <circle cx="169" cy="274" r="5" stroke="none" fill="orange" stroke-width="2"></circle>
        <circle cx="163.5" cy="272" r="5" stroke="none" fill="orange" stroke-width="2"></circle>
        <circle cx="158" cy="269.5" r="5" stroke="none" fill="orange" stroke-width="2"></circle>
        <circle cx="154" cy="266.5" r="5" stroke="none" fill="orange" stroke-width="2"></circle>
        <circle cx="149" cy="263" r="5" stroke="none" fill="orange" stroke-width="2"></circle>
        <circle cx="144.5" cy="261" r="5" stroke="none" fill="orange" stroke-width="2"></circle>
        <circle cx="139.5" cy="257" r="5" stroke="none" fill="orange" stroke-width="2"></circle>
        <circle cx="136" cy="253.5" r="5" stroke="none" fill="orange" stroke-width="2"></circle>
        <circle cx="132.5" cy="249" r="5" stroke="none" fill="orange" stroke-width="2"></circle>
        <circle cx="129.5" cy="244.5" r="5" stroke="none" fill="orange" stroke-width="2"></circle>
        <circle cx="126.5" cy="241" r="5" stroke="none" fill="orange" stroke-width="2"></circle>
        <circle cx="123.5" cy="236" r="5" stroke="none" fill="orange" stroke-width="2"></circle>
        <circle cx="122" cy="232.5" r="5" stroke="none" fill="orange" stroke-width="2"></circle>
        <circle cx="119.5" cy="228" r="5" stroke="none" fill="orange" stroke-width="2"></circle>
        <circle cx="118" cy="223.5" r="5" stroke="none" fill="orange" stroke-width="2"></circle>
        <circle cx="117.5" cy="219.5" r="5" stroke="none" fill="orange" stroke-width="2"></circle>
        <circle cx="115.5" cy="214" r="5" stroke="none" fill="orange" stroke-width="2"></circle>
        <circle cx="115.5" cy="210" r="5" stroke="none" fill="orange" stroke-width="2"></circle>
        <circle cx="115.5" cy="206.5" r="5" stroke="none" fill="orange" stroke-width="2"></circle>
        <circle cx="115.5" cy="203" r="5" stroke="none" fill="orange" stroke-width="2"></circle>
        <circle cx="116" cy="197.5" r="5" stroke="none" fill="orange" stroke-width="2"></circle>
        <circle cx="116.5" cy="193" r="5" stroke="none" fill="orange" stroke-width="2"></circle>
        <circle cx="118" cy="189.5" r="5" stroke="none" fill="orange" stroke-width="2"></circle>
        <circle cx="118.5" cy="185" r="5" stroke="none" fill="orange" stroke-width="2"></circle>
        <circle cx="120" cy="182.5" r="5" stroke="none" fill="orange" stroke-width="2"></circle>
        <circle cx="121.5" cy="178" r="5" stroke="none" fill="orange" stroke-width="2"></circle>
        <circle cx="123" cy="174" r="5" stroke="none" fill="orange" stroke-width="2"></circle>
        <circle cx="125.5" cy="171.5" r="5" stroke="none" fill="orange" stroke-width="2"></circle>
        <circle cx="128" cy="169.5" r="5" stroke="none" fill="orange" stroke-width="2"></circle>
        <circle cx="131" cy="166" r="5" stroke="none" fill="orange" stroke-width="2"></circle>
        <circle cx="133" cy="164" r="5" stroke="none" fill="orange" stroke-width="2"></circle>
        <circle cx="135.5" cy="161.5" r="5" stroke="none" fill="orange" stroke-width="2"></circle>
        <circle cx="138" cy="159.5" r="5" stroke="none" fill="orange" stroke-width="2"></circle>
        <circle cx="141.5" cy="157.5" r="5" stroke="none" fill="orange" stroke-width="2"></circle>
        <circle cx="144.5" cy="155" r="5" stroke="none" fill="orange" stroke-width="2"></circle>
        <circle cx="148.5" cy="154.5" r="5" stroke="none" fill="orange" stroke-width="2"></circle>
        <circle cx="150" cy="153" r="5" stroke="none" fill="orange" stroke-width="2"></circle>
        <circle cx="152.5" cy="153" r="5" stroke="none" fill="orange" stroke-width="2"></circle>
        <circle cx="155.5" cy="151.5" r="5" stroke="none" fill="orange" stroke-width="2"></circle>
        <circle cx="159.5" cy="151" r="5" stroke="none" fill="orange" stroke-width="2"></circle>
        <circle cx="162" cy="151" r="5" stroke="none" fill="orange" stroke-width="2"></circle>
        <circle cx="165.5" cy="151" r="5" stroke="none" fill="orange" stroke-width="2"></circle>
        <circle cx="168.5" cy="151" r="5" stroke="none" fill="orange" stroke-width="2"></circle>
        <circle cx="172" cy="151" r="5" stroke="none" fill="orange" stroke-width="2"></circle>
        <circle cx="174" cy="152" r="5" stroke="none" fill="orange" stroke-width="2"></circle>
        <circle cx="176.5" cy="152.5" r="5" stroke="none" fill="orange" stroke-width="2"></circle>
        <circle cx="178" cy="153" r="5" stroke="none" fill="orange" stroke-width="2"></circle>
        <circle cx="180" cy="154" r="5" stroke="none" fill="orange" stroke-width="2"></circle>
        <circle cx="182" cy="154.5" r="5" stroke="none" fill="orange" stroke-width="2"></circle>
        <circle cx="39" cy="254" r="5" stroke="none" fill="Green" stroke-width="2"></circle>
        <circle cx="35.5" cy="243.5" r="5" stroke="none" fill="Green" stroke-width="2"></circle>
        <circle cx="33.5" cy="236" r="5" stroke="none" fill="Green" stroke-width="2"></circle>
        <circle cx="31" cy="226.5" r="5" stroke="none" fill="Green" stroke-width="2"></circle>
        <circle cx="31" cy="217.5" r="5" stroke="none" fill="Green" stroke-width="2"></circle>
        <circle cx="30.5" cy="208.5" r="5" stroke="none" fill="Green" stroke-width="2"></circle>
        <circle cx="30" cy="199" r="5" stroke="none" fill="Green" stroke-width="2"></circle>
        <circle cx="31" cy="190" r="5" stroke="none" fill="Green" stroke-width="2"></circle>
        <circle cx="32" cy="181.5" r="5" stroke="none" fill="Green" stroke-width="2"></circle>
        <circle cx="34.5" cy="172.5" r="5" stroke="none" fill="Green" stroke-width="2"></circle>
        <circle cx="37" cy="163" r="5" stroke="none" fill="Green" stroke-width="2"></circle>
        <circle cx="39.5" cy="154.5" r="5" stroke="none" fill="Green" stroke-width="2"></circle>
        <circle cx="43.5" cy="147.5" r="5" stroke="none" fill="Green" stroke-width="2"></circle>
        <circle cx="47" cy="139" r="5" stroke="none" fill="Green" stroke-width="2"></circle>
        <circle cx="51.5" cy="132" r="5" stroke="none" fill="Green" stroke-width="2"></circle>
        <circle cx="56" cy="125" r="5" stroke="none" fill="Green" stroke-width="2"></circle>
        <circle cx="62" cy="117" r="5" stroke="none" fill="Green" stroke-width="2"></circle>
        <circle cx="68" cy="111.5" r="5" stroke="none" fill="Green" stroke-width="2"></circle>
        <circle cx="73.5" cy="105.5" r="5" stroke="none" fill="Green" stroke-width="2"></circle>
        <circle cx="80.5" cy="100.5" r="5" stroke="none" fill="Green" stroke-width="2"></circle>
        <circle cx="88" cy="95.5" r="5" stroke="none" fill="Green" stroke-width="2"></circle>
        <circle cx="95" cy="90" r="5" stroke="none" fill="Green" stroke-width="2"></circle>
        <circle cx="102" cy="86.5" r="5" stroke="none" fill="Green" stroke-width="2"></circle>
        <circle cx="109" cy="82.5" r="5" stroke="none" fill="Green" stroke-width="2"></circle>
        <circle cx="117" cy="80" r="5" stroke="none" fill="Green" stroke-width="2"></circle>
        <circle cx="124.5" cy="77.5" r="5" stroke="none" fill="Green" stroke-width="2"></circle>
        <circle cx="133" cy="74" r="5" stroke="none" fill="Green" stroke-width="2"></circle>
        <circle cx="140.5" cy="74" r="5" stroke="none" fill="Green" stroke-width="2"></circle>
        <circle cx="147" cy="72.5" r="5" stroke="none" fill="Green" stroke-width="2"></circle>
        <circle cx="155.5" cy="72.5" r="5" stroke="none" fill="Green" stroke-width="2"></circle>
        <circle cx="164" cy="72.5" r="5" stroke="none" fill="Green" stroke-width="2"></circle>
        <circle cx="171" cy="72.5" r="5" stroke="none" fill="Green" stroke-width="2"></circle>
        <circle cx="179" cy="72.5" r="5" stroke="none" fill="Green" stroke-width="2"></circle>
        <circle cx="185.5" cy="73" r="5" stroke="none" fill="Green" stroke-width="2"></circle>
        <circle cx="193.5" cy="74" r="5" stroke="none" fill="Green" stroke-width="2"></circle>
        <circle cx="201" cy="76.5" r="5" stroke="none" fill="Green" stroke-width="2"></circle>
        <circle cx="207" cy="79" r="5" stroke="none" fill="Green" stroke-width="2"></circle>
        <circle cx="214.5" cy="82" r="5" stroke="none" fill="Green" stroke-width="2"></circle>
        <circle cx="220.5" cy="85" r="5" stroke="none" fill="Green" stroke-width="2"></circle>
        <circle cx="227" cy="88.5" r="5" stroke="none" fill="Green" stroke-width="2"></circle>
        <circle cx="233.5" cy="93.5" r="5" stroke="none" fill="Green" stroke-width="2"></circle>
        <circle cx="238" cy="97" r="5" stroke="none" fill="Green" stroke-width="2"></circle>
        <circle cx="243" cy="101.5" r="5" stroke="none" fill="Green" stroke-width="2"></circle>
        <circle cx="247.5" cy="106.5" r="5" stroke="none" fill="Green" stroke-width="2"></circle>
        <circle cx="252.5" cy="110.5" r="5" stroke="none" fill="Green" stroke-width="2"></circle>
        <circle cx="256.5" cy="115.5" r="5" stroke="none" fill="Green" stroke-width="2"></circle>
        <circle cx="260.5" cy="120" r="5" stroke="none" fill="Green" stroke-width="2"></circle>
        <circle cx="262" cy="127" r="5" stroke="none" fill="Green" stroke-width="2"></circle>
        <circle cx="266" cy="132" r="5" stroke="none" fill="Green" stroke-width="2"></circle>
        <circle cx="267.5" cy="137.5" r="5" stroke="none" fill="Green" stroke-width="2"></circle>
        <circle cx="270" cy="143" r="5" stroke="none" fill="Green" stroke-width="2"></circle>
        <circle cx="271.5" cy="148.5" r="5" stroke="none" fill="Green" stroke-width="2"></circle>
        <circle cx="271.5" cy="154" r="5" stroke="none" fill="Green" stroke-width="2"></circle>
        <circle cx="273.5" cy="159" r="5" stroke="none" fill="Green" stroke-width="2"></circle>
        <circle cx="273.5" cy="165.5" r="5" stroke="none" fill="Green" stroke-width="2"></circle>
        <circle cx="274" cy="170" r="5" stroke="none" fill="Green" stroke-width="2"></circle>
        <circle cx="273" cy="176" r="5" stroke="none" fill="Green" stroke-width="2"></circle>
        <circle cx="271.5" cy="181" r="5" stroke="none" fill="Green" stroke-width="2"></circle>
        <circle cx="270" cy="186" r="5" stroke="none" fill="Green" stroke-width="2"></circle>
        <circle cx="270" cy="191" r="5" stroke="none" fill="Green" stroke-width="2"></circle>
        <circle cx="267.5" cy="196.5" r="5" stroke="none" fill="Green" stroke-width="2"></circle>
        <circle cx="265.5" cy="201.5" r="5" stroke="none" fill="Green" stroke-width="2"></circle>
        <circle cx="263" cy="205.5" r="5" stroke="none" fill="Green" stroke-width="2"></circle>
        <circle cx="259.5" cy="209" r="5" stroke="none" fill="Green" stroke-width="2"></circle>
        <circle cx="257.5" cy="213" r="5" stroke="none" fill="Green" stroke-width="2"></circle>
        <circle cx="253.5" cy="217" r="5" stroke="none" fill="Green" stroke-width="2"></circle>
        <circle cx="250.5" cy="220.5" r="5" stroke="none" fill="Green" stroke-width="2"></circle>
        <circle cx="248" cy="223" r="5" stroke="none" fill="Green" stroke-width="2"></circle>
        <circle cx="244" cy="225.5" r="5" stroke="none" fill="Green" stroke-width="2"></circle>
        <circle cx="240.5" cy="228" r="5" stroke="none" fill="Green" stroke-width="2"></circle>
        <circle cx="235.5" cy="231.5" r="5" stroke="none" fill="Green" stroke-width="2"></circle>
        <circle cx="232" cy="233.5" r="5" stroke="none" fill="Green" stroke-width="2"></circle>
        <circle cx="227.5" cy="236" r="5" stroke="none" fill="Green" stroke-width="2"></circle>
        <circle cx="223" cy="237" r="5" stroke="none" fill="Green" stroke-width="2"></circle>
        <circle cx="219" cy="239" r="5" stroke="none" fill="Green" stroke-width="2"></circle>
        <circle cx="214.5" cy="239.5" r="5" stroke="none" fill="Green" stroke-width="2"></circle>
        <circle cx="211" cy="240" r="5" stroke="none" fill="Green" stroke-width="2"></circle>
        <circle cx="207" cy="240.5" r="5" stroke="none" fill="Green" stroke-width="2"></circle>
        <circle cx="203.5" cy="240.5" r="5" stroke="none" fill="Green" stroke-width="2"></circle>
        <circle cx="199.5" cy="240" r="5" stroke="none" fill="Green" stroke-width="2"></circle>
        <circle cx="195.5" cy="240" r="5" stroke="none" fill="Green" stroke-width="2"></circle>
        <circle cx="191.5" cy="239.5" r="5" stroke="none" fill="Green" stroke-width="2"></circle>
        <circle cx="188.5" cy="239" r="5" stroke="none" fill="Green" stroke-width="2"></circle>
        <circle cx="184.5" cy="237.5" r="5" stroke="none" fill="Green" stroke-width="2"></circle>
        <circle cx="181.5" cy="236.5" r="5" stroke="none" fill="Green" stroke-width="2"></circle>
        <circle cx="178.5" cy="235" r="5" stroke="none" fill="Green" stroke-width="2"></circle>
        <circle cx="175" cy="233" r="5" stroke="none" fill="Green" stroke-width="2"></circle>
        <circle cx="172" cy="230.5" r="5" stroke="none" fill="Green" stroke-width="2"></circle>
        <circle cx="170" cy="229.5" r="5" stroke="none" fill="Green" stroke-width="2"></circle>
        <circle cx="167.5" cy="228" r="5" stroke="none" fill="Green" stroke-width="2"></circle>
        <circle cx="166.5" cy="226.5" r="5" stroke="none" fill="Green" stroke-width="2"></circle>
        <circle cx="165" cy="225" r="5" stroke="none" fill="Green" stroke-width="2"></circle>
        <circle cx="163.5" cy="223" r="5" stroke="none" fill="Green" stroke-width="2"></circle>
        <circle cx="162" cy="222" r="5" stroke="none" fill="Green" stroke-width="2"></circle>
        <circle cx="161.5" cy="220.5" r="5" stroke="none" fill="Green" stroke-width="2"></circle>
        <circle cx="160" cy="219" r="5" stroke="none" fill="Green" stroke-width="2"></circle>
        <circle cx="159.5" cy="217.5" r="5" stroke="none" fill="Green" stroke-width="2"></circle>
        <circle cx="159" cy="216" r="5" stroke="none" fill="Green" stroke-width="2"></circle>
        <circle cx="158" cy="215" r="5" stroke="none" fill="Green" stroke-width="2"></circle>
        <circle cx="158" cy="213.5" r="5" stroke="none" fill="Green" stroke-width="2"></circle>
        <circle cx="157.5" cy="211.5" r="5" stroke="none" fill="Green" stroke-width="2"></circle>
        <circle cx="156.5" cy="209.5" r="5" stroke="none" fill="Green" stroke-width="2"></circle>
        <circle cx="156.5" cy="207.5" r="5" stroke="none" fill="Green" stroke-width="2"></circle>
        <circle cx="156.5" cy="205" r="5" stroke="none" fill="Green" stroke-width="2"></circle>
    </g>
</svg>